# xmcd
#
# Track frame offsets: 
#        150
#        16511
#        34038
#        49133
#        67558
#        86771
#        101672
#        114907
#        131612
#        147197
#        164521
#        181460
#        199775
#
# Disc length: 2924 seconds
#
# Revision: 1
# Processed by: cddbd v1.5.2PL0 Copyright (c) Steve Scherf et al.
# Submitted via: ExactAudioCopyFreeDBPlugin 1.0
#
DISCID=a40b6a0d
DTITLE=Pat Green - Home
DYEAR=2015
DGENRE=Country
TTITLE0=Home
TTITLE1=Break It Back Down
TTITLE2=Girls From Texas (Feat. Lyle Lovett)
TTITLE3=Bet Yo Mama
TTITLE4=Right Now (Feat. Sheryl Crow)
TTITLE5=While I Was Away
TTITLE6=May the Good Times Never End (Feat. Delbert McClinton And Lee 
TTITLE6=Roy Parnell)
TTITLE7=Life Good As It Can Be
TTITLE8=No One Here but Us
TTITLE9=I'll Take This House
TTITLE10=I Go Back to You
TTITLE11=Day One
TTITLE12=Good Night New Orleans (Feat. Marc Broussard)
EXTD=
EXTT0=
EXTT1=
EXTT2=
EXTT3=
EXTT4=
EXTT5=
EXTT6=
EXTT7=
EXTT8=
EXTT9=
EXTT10=
EXTT11=
EXTT12=
PLAYORDER=
